{"accessors" : [{"bufferView" : 0, "byteOffset" : 0, "componentType" : 5123, "count" : 9360, "type" : "SCALAR", "max" : [7795], "min" : [0]}, {"bufferView" : 1, "byteOffset" : 0, "componentType" : 5126, "count" : 7796, "type" : "VEC3", "max" : [1, 1, 1.000000238418579], "min" : [-1.000000238418579, -4.526651382446289, -1.0000005960464478], "name" : "POSITION"}, {"bufferView" : 1, "byteOffset" : 12, "componentType" : 5126, "count" : 7796, "type" : "VEC3", "max" : [1.0000044107437134, 1.0000044107437134, 1.0000042915344238], "min" : [-1.0000044107437134, -1.0000042915344238, -1.0000044107437134], "name" : "NORMAL"}], "asset" : {"generator" : "Aspose.3D 22.7", "version" : "2.0"}, "buffers" : [{"uri" : "data:application/octet-stream;base64,", "byteLength" : 243368}], "bufferViews" : [{"buffer" : 0, "byteOffset" : 0, "byteLength" : 18720, "target" : 34963}, {"buffer" : 0, "byteOffset" : 18724, "byteLength" : 224640, "byteStride" : 24, "target" : 34962}], "materials" : [{"name" : "lambert1", "pbrMetallicRoughness" : {"baseColorFactor" : [0.5, 0.5, 0.5, 1], "metallicFactor" : 0, "roughnessFactor" : 0}, "emissiveFactor" : [0, 0, 0], "alphaMode" : "OPAQUE", "doubleSided" : false}], "meshes" : [{"primitives" : [{"attributes" : {"POSITION" : 1, "NORMAL" : 2}, "indices" : 0, "material" : 0, "mode" : 4}], "name" : ""}], "nodes" : [{"matrix" : [1, 0, 0, 0, 0, 1, 0, 0, 0, 0, 1, 0, -2.1556565190361763, 0, 0, 1], "mesh" : 0, "name" : "pSphere9"}], "scene" : 0, "scenes" : [{"nodes" : [0]}]}